<?xml version="1.0" encoding="utf-8"?>
<!-- Generator: Adobe Illustrator 23.1.0, SVG Export Plug-In . SVG Version: 6.00 Build 0)  -->
<svg version="1.1" id="Слой_1" xmlns="http://www.w3.org/2000/svg" xmlns:xlink="http://www.w3.org/1999/xlink" x="0px" y="0px"
	 viewBox="0 0 32 32" style="enable-background:new 0 0 32 32;" xml:space="preserve">
<style type="text/css">
	.st0{fill:#6C7883;}
</style>
<title>address-book</title>
<path class="st0" d="M6,0v32h24V0H6z M18,8c2.2,0,4,1.8,4,4s-1.8,4-4,4s-4-1.8-4-4S15.8,8,18,8L18,8z M24,24H12v-2c0-2.2,1.8-4,4-4
	l0,0h4c2.2,0,4,1.8,4,4V24z"/>
<path class="st0" d="M2,0h3v8H2V0z"/>
<path class="st0" d="M2,10h3v6H2V10z"/>
<path class="st0" d="M2,18h3v6H2V18z"/>
<path class="st0" d="M2,26h3v6H2V26z"/>
</svg>
