<?xml version="1.0" encoding="utf-8"?>
<!-- Generator: Adobe Illustrator 23.1.0, SVG Export Plug-In . SVG Version: 6.00 Build 0)  -->
<svg version="1.1" id="Слой_1" xmlns="http://www.w3.org/2000/svg" xmlns:xlink="http://www.w3.org/1999/xlink" x="0px" y="0px"
	 viewBox="0 0 32 32" style="enable-background:new 0 0 32 32;" xml:space="preserve">
<style type="text/css">
	.st0{fill:#6C7883;}
</style>
<title>attachment</title>
<path class="st0" d="M20.8,10.2l-2-2L8.6,18.3c-1.7,1.7-1.7,4.4,0,6.1s4.4,1.7,6.1,0l12.2-12.2c2.8-2.8,2.8-7.3,0-10.1
	c-2.8-2.8-7.3-2.8-10.1,0L4,14.9c0,0,0,0,0,0C0,18.8,0,25.2,3.9,29.1c3.9,3.9,10.2,3.9,14.2,0c0,0,0,0,0,0l0,0l8.7-8.7l-2-2L16.1,27
	c0,0,0,0,0,0c-2.8,2.8-7.3,2.8-10.1,0c-2.8-2.8-2.8-7.3,0-10.1c0,0,0,0,0,0l0,0L18.8,4.1c1.7-1.7,4.4-1.7,6.1,0s1.7,4.4,0,6.1
	L12.7,22.4c-0.6,0.6-1.5,0.6-2,0c-0.6-0.6-0.6-1.5,0-2L20.8,10.2L20.8,10.2z"/>
</svg>
