<?xml version="1.0" encoding="utf-8"?>
<!-- Generator: Adobe Illustrator 23.1.0, SVG Export Plug-In . SVG Version: 6.00 Build 0)  -->
<svg version="1.1" id="Capa_1" xmlns="http://www.w3.org/2000/svg" xmlns:xlink="http://www.w3.org/1999/xlink" x="0px" y="0px"
	 viewBox="0 0 385 385" style="enable-background:new 0 0 385 385;" xml:space="preserve">
<style type="text/css">
	.st0{fill:#73B9F5;}
</style>
<g>
	<g id="Double_Check">
		<path class="st0" d="M273.3,94.4L273.3,94.4L273.3,94.4z"/>
		<path class="st0" d="M381.4,94.4L381.4,94.4L381.4,94.4z"/>
		<path class="st0" d="M273.3,94.4L273.3,94.4C274.5,95.6,275.7,96.7,273.3,94.4z"/>
		<path class="st0" d="M273.3,94.4L273.3,94.4c-4.8-4.7-12.4-4.7-17.2,0L84.3,265.1l-63.5-62.5c-4.7-4.7-12.4-4.7-17.2,0
			s-4.7,12.3,0,17l72.2,71c4.7,4.6,12.5,4.6,17.2,0l180.4-179.2C278.1,106.7,278.1,99.1,273.3,94.4z"/>
		<path class="st0" d="M273.3,94.4L273.3,94.4C271,92,272.2,93.2,273.3,94.4z"/>
		<path class="st0" d="M381.4,94.4L381.4,94.4C379,92,380.2,93.2,381.4,94.4z"/>
		<path class="st0" d="M381.4,94.4L381.4,94.4C382.6,95.6,383.8,96.7,381.4,94.4z"/>
		<path class="st0" d="M381.4,94.4L381.4,94.4c-4.8-4.7-12.4-4.7-17.2,0L192.3,265.1l-15.4-14.4c-4.7-4.7-12.4-4.7-17.2,0
			s-4.7,12.3,0,17l24,22.8c4.7,4.6,12.5,4.6,17.2,0l180.4-179.2C386.2,106.7,386.2,99.1,381.4,94.4z"/>
	</g>
</g>
</svg>
