<?xml version="1.0" encoding="utf-8"?>
<!-- Generator: Adobe Illustrator 23.1.0, SVG Export Plug-In . SVG Version: 6.00 Build 0)  -->
<svg version="1.1" id="Слой_1" xmlns="http://www.w3.org/2000/svg" xmlns:xlink="http://www.w3.org/1999/xlink" x="0px" y="0px"
	 viewBox="0 0 32 32" style="enable-background:new 0 0 32 32;" xml:space="preserve">
<style type="text/css">
	.st0{fill:#DCDCDC;}
</style>
<title>list2</title>
<path class="st0" d="M0,4c0-2.2,1.8-4,4-4s4,1.8,4,4S6.2,8,4,8S0,6.2,0,4z M0,16c0-2.2,1.8-4,4-4s4,1.8,4,4s-1.8,4-4,4S0,18.2,0,16z
	 M0,28c0-2.2,1.8-4,4-4s4,1.8,4,4s-1.8,4-4,4S0,30.2,0,28z"/>
</svg>
