<?xml version="1.0" encoding="utf-8"?>
<!-- Generator: Adobe Illustrator 23.1.0, SVG Export Plug-In . SVG Version: 6.00 Build 0)  -->
<svg version="1.1" id="Слой_1" xmlns="http://www.w3.org/2000/svg" xmlns:xlink="http://www.w3.org/1999/xlink" x="0px" y="0px"
	 viewBox="0 0 32 32" style="enable-background:new 0 0 32 32;" xml:space="preserve">
<style type="text/css">
	.st0{fill:#F4F4F4;}
</style>
<title>mic</title>
<path class="st0" d="M15,22c2.8,0,5-2.2,5-5V5c0-2.8-2.2-5-5-5s-5,2.2-5,5v12C10,19.8,12.2,22,15,22z M22,14v3c0,3.9-3.1,7-7,7
	s-7-3.1-7-7v-3H6v3c0,4.6,3.5,8.4,8,8.9V30h-4v2h10v-2h-4v-4.1c4.5-0.5,8-4.3,8-8.9v-3H22z"/>
</svg>
