<?xml version="1.0" encoding="utf-8"?>
<!-- Generator: Adobe Illustrator 23.1.0, SVG Export Plug-In . SVG Version: 6.00 Build 0)  -->
<svg version="1.1" id="Слой_1" xmlns="http://www.w3.org/2000/svg" xmlns:xlink="http://www.w3.org/1999/xlink" x="0px" y="0px"
	 viewBox="0 0 32 32" style="enable-background:new 0 0 32 32;" xml:space="preserve">
<style type="text/css">
	.st0{fill:#6C7883;}
</style>
<title>smile</title>
<path class="st0" d="M16,32c8.8,0,16-7.2,16-16S24.8,0,16,0S0,7.2,0,16S7.2,32,16,32z M16,3c7.2,0,13,5.8,13,13s-5.8,13-13,13
	S3,23.2,3,16S8.8,3,16,3z M8,10c0-1.1,0.9-2,2-2s2,0.9,2,2s-0.9,2-2,2S8,11.1,8,10z M20,10c0-1.1,0.9-2,2-2s2,0.9,2,2s-0.9,2-2,2
	S20,11.1,20,10z M22,19.6l2.6,1.5C22.8,24.1,19.6,26,16,26s-6.8-1.9-8.6-4.9l2.6-1.5c1.2,2,3.5,3.4,6,3.4S20.8,21.6,22,19.6z"/>
</svg>
